# xmcd CD database file
#
# Track frame offsets:
#	150
#	11405
#	22738
#	37232
#	50081
#	63716
#	74760
#	87296
#	96767
#	108851
#	127358
#	136552
#	145685
#	158809
#	173526
#
# Disc length: 2483 seconds
#
# Revision: 0
# Processed by: cddbd v1.5.2PL0 Copyright (c) Steve Scherf et al.
# Submitted via: CDex 1.50
#
DISCID=cc09b10f
DTITLE=Perez Prado - Legends CD1
DYEAR=2005
DGENRE=Jazz
TTITLE0=Cherry Pink And Apple Blossom White
TTITLE1=Fireworks
TTITLE2=Besame Mucho
TTITLE3=Historia De Un Amor (The Story Of Love)
TTITLE4=The Peanut Vendor (El Manicero)
TTITLE5=Come Back To Sorrento (Torna A Sorrento)
TTITLE6=Maria Bonita
TTITLE7=Mambo No. 8
TTITLE8=Manhattan
TTITLE9=Lullaby Of Birdland
TTITLE10=You're Driving Me Crazy! (What Did I Do)
TTITLE11=Ruletero
TTITLE12=Adois Mi Chaparrita (Goodbye My Little Angel)
TTITLE13=Desconfianza (Distrust)
TTITLE14=Flight Of The Bumblebee
EXTD=YEAR: 2005
EXTT0=
EXTT1=
EXTT2=
EXTT3=
EXTT4=
EXTT5=
EXTT6=
EXTT7=
EXTT8=
EXTT9=
EXTT10=
EXTT11=
EXTT12=
EXTT13=
EXTT14=
PLAYORDER=
